<mxfile host="app.diagrams.net" modified="2024-06-09T20:50:21.205Z" agent="Mozilla/5.0 (Windows NT 10.0; Win64; x64; rv:126.0) Gecko/20100101 Firefox/126.0" etag="puNvl_3fs62jhQOPenMC" version="24.4.0" type="device">
  <diagram name="Page-1" id="hLj_kXb62XHOqsIi7ZO2">
    <mxGraphModel dx="1105" dy="662" grid="1" gridSize="10" guides="1" tooltips="1" connect="1" arrows="1" fold="1" page="1" pageScale="1" pageWidth="1920" pageHeight="1200" math="0" shadow="0">
      <root>
        <mxCell id="0" />
        <mxCell id="1" parent="0" />
        <mxCell id="pSPXtr5vTM0hde9f8MuT-21" value="BookTheme" style="shape=rhombus;perimeter=rhombusPerimeter;whiteSpace=wrap;html=1;align=center;" vertex="1" parent="1">
          <mxGeometry x="610" y="442" width="90" height="60" as="geometry" />
        </mxCell>
        <mxCell id="pSPXtr5vTM0hde9f8MuT-44" value="" style="group" vertex="1" connectable="0" parent="1">
          <mxGeometry x="400" y="229" width="240" height="131" as="geometry" />
        </mxCell>
        <mxCell id="pSPXtr5vTM0hde9f8MuT-13" value="Book" style="whiteSpace=wrap;html=1;align=center;" vertex="1" parent="pSPXtr5vTM0hde9f8MuT-44">
          <mxGeometry x="70" y="91" width="100" height="40" as="geometry" />
        </mxCell>
        <mxCell id="pSPXtr5vTM0hde9f8MuT-34" value="book_id" style="ellipse;whiteSpace=wrap;html=1;align=center;fontStyle=4;fontSize=10;" vertex="1" parent="pSPXtr5vTM0hde9f8MuT-44">
          <mxGeometry y="51" width="70" height="30" as="geometry" />
        </mxCell>
        <mxCell id="pSPXtr5vTM0hde9f8MuT-35" value="title" style="ellipse;whiteSpace=wrap;html=1;align=center;fontStyle=0;fontSize=10;" vertex="1" parent="pSPXtr5vTM0hde9f8MuT-44">
          <mxGeometry x="25" y="21" width="70" height="30" as="geometry" />
        </mxCell>
        <mxCell id="pSPXtr5vTM0hde9f8MuT-36" value="summary" style="ellipse;whiteSpace=wrap;html=1;align=center;fontStyle=0;fontSize=10;" vertex="1" parent="pSPXtr5vTM0hde9f8MuT-44">
          <mxGeometry x="145" y="21" width="70" height="30" as="geometry" />
        </mxCell>
        <mxCell id="pSPXtr5vTM0hde9f8MuT-37" value="price_cents" style="ellipse;whiteSpace=wrap;html=1;align=center;fontStyle=0;fontSize=10;" vertex="1" parent="pSPXtr5vTM0hde9f8MuT-44">
          <mxGeometry x="85" width="70" height="30" as="geometry" />
        </mxCell>
        <mxCell id="pSPXtr5vTM0hde9f8MuT-38" value="release_date" style="ellipse;whiteSpace=wrap;html=1;align=center;fontStyle=0;fontSize=10;" vertex="1" parent="pSPXtr5vTM0hde9f8MuT-44">
          <mxGeometry x="170" y="51" width="70" height="30" as="geometry" />
        </mxCell>
        <mxCell id="pSPXtr5vTM0hde9f8MuT-39" value="" style="endArrow=none;html=1;rounded=0;exitX=0.25;exitY=0;exitDx=0;exitDy=0;entryX=1;entryY=1;entryDx=0;entryDy=0;" edge="1" parent="pSPXtr5vTM0hde9f8MuT-44" source="pSPXtr5vTM0hde9f8MuT-13" target="pSPXtr5vTM0hde9f8MuT-34">
          <mxGeometry relative="1" as="geometry">
            <mxPoint x="75" y="91" as="sourcePoint" />
            <mxPoint x="235" y="91" as="targetPoint" />
          </mxGeometry>
        </mxCell>
        <mxCell id="pSPXtr5vTM0hde9f8MuT-40" value="" style="endArrow=none;html=1;rounded=0;exitX=0.377;exitY=-0.008;exitDx=0;exitDy=0;entryX=1;entryY=1;entryDx=0;entryDy=0;exitPerimeter=0;" edge="1" parent="pSPXtr5vTM0hde9f8MuT-44" source="pSPXtr5vTM0hde9f8MuT-13" target="pSPXtr5vTM0hde9f8MuT-35">
          <mxGeometry relative="1" as="geometry">
            <mxPoint x="105" y="101" as="sourcePoint" />
            <mxPoint x="70" y="87" as="targetPoint" />
          </mxGeometry>
        </mxCell>
        <mxCell id="pSPXtr5vTM0hde9f8MuT-41" value="" style="endArrow=none;html=1;rounded=0;exitX=0.5;exitY=0;exitDx=0;exitDy=0;entryX=0.5;entryY=1;entryDx=0;entryDy=0;" edge="1" parent="pSPXtr5vTM0hde9f8MuT-44" source="pSPXtr5vTM0hde9f8MuT-13" target="pSPXtr5vTM0hde9f8MuT-37">
          <mxGeometry relative="1" as="geometry">
            <mxPoint x="117" y="101" as="sourcePoint" />
            <mxPoint x="93" y="60" as="targetPoint" />
          </mxGeometry>
        </mxCell>
        <mxCell id="pSPXtr5vTM0hde9f8MuT-42" value="" style="endArrow=none;html=1;rounded=0;exitX=0.633;exitY=0.008;exitDx=0;exitDy=0;entryX=0;entryY=1;entryDx=0;entryDy=0;exitPerimeter=0;" edge="1" parent="pSPXtr5vTM0hde9f8MuT-44" source="pSPXtr5vTM0hde9f8MuT-13" target="pSPXtr5vTM0hde9f8MuT-36">
          <mxGeometry relative="1" as="geometry">
            <mxPoint x="118" y="101" as="sourcePoint" />
            <mxPoint x="93" y="57" as="targetPoint" />
          </mxGeometry>
        </mxCell>
        <mxCell id="pSPXtr5vTM0hde9f8MuT-43" value="" style="endArrow=none;html=1;rounded=0;exitX=0.75;exitY=0;exitDx=0;exitDy=0;entryX=0;entryY=1;entryDx=0;entryDy=0;" edge="1" parent="pSPXtr5vTM0hde9f8MuT-44" source="pSPXtr5vTM0hde9f8MuT-13" target="pSPXtr5vTM0hde9f8MuT-38">
          <mxGeometry relative="1" as="geometry">
            <mxPoint x="105" y="101" as="sourcePoint" />
            <mxPoint x="70" y="87" as="targetPoint" />
          </mxGeometry>
        </mxCell>
        <mxCell id="pSPXtr5vTM0hde9f8MuT-45" value="" style="endArrow=none;html=1;rounded=0;exitX=1;exitY=0.75;exitDx=0;exitDy=0;entryX=0;entryY=0;entryDx=0;entryDy=0;" edge="1" parent="1" source="pSPXtr5vTM0hde9f8MuT-13" target="pSPXtr5vTM0hde9f8MuT-30">
          <mxGeometry relative="1" as="geometry">
            <mxPoint x="530" y="400" as="sourcePoint" />
            <mxPoint x="690" y="400" as="targetPoint" />
          </mxGeometry>
        </mxCell>
        <mxCell id="pSPXtr5vTM0hde9f8MuT-46" value="" style="endArrow=none;html=1;rounded=0;exitX=1;exitY=0.25;exitDx=0;exitDy=0;entryX=0;entryY=1;entryDx=0;entryDy=0;" edge="1" parent="1" source="pSPXtr5vTM0hde9f8MuT-13" target="pSPXtr5vTM0hde9f8MuT-31">
          <mxGeometry relative="1" as="geometry">
            <mxPoint x="605" y="360" as="sourcePoint" />
            <mxPoint x="710" y="380" as="targetPoint" />
          </mxGeometry>
        </mxCell>
        <mxCell id="pSPXtr5vTM0hde9f8MuT-47" value="" style="endArrow=none;html=1;rounded=0;entryX=1;entryY=1;entryDx=0;entryDy=0;exitX=0;exitY=0.25;exitDx=0;exitDy=0;" edge="1" parent="1" source="pSPXtr5vTM0hde9f8MuT-9" target="pSPXtr5vTM0hde9f8MuT-31">
          <mxGeometry relative="1" as="geometry">
            <mxPoint x="630" y="340" as="sourcePoint" />
            <mxPoint x="790" y="340" as="targetPoint" />
          </mxGeometry>
        </mxCell>
        <mxCell id="pSPXtr5vTM0hde9f8MuT-48" value="" style="endArrow=none;html=1;rounded=0;entryX=1;entryY=0;entryDx=0;entryDy=0;exitX=0;exitY=0.75;exitDx=0;exitDy=0;" edge="1" parent="1" source="pSPXtr5vTM0hde9f8MuT-9" target="pSPXtr5vTM0hde9f8MuT-30">
          <mxGeometry relative="1" as="geometry">
            <mxPoint x="939" y="356" as="sourcePoint" />
            <mxPoint x="800" y="320" as="targetPoint" />
          </mxGeometry>
        </mxCell>
        <mxCell id="pSPXtr5vTM0hde9f8MuT-52" value="" style="endArrow=none;html=1;rounded=0;entryX=0.25;entryY=0;entryDx=0;entryDy=0;exitX=1;exitY=1;exitDx=0;exitDy=0;" edge="1" parent="1" source="pSPXtr5vTM0hde9f8MuT-21" target="pSPXtr5vTM0hde9f8MuT-14">
          <mxGeometry relative="1" as="geometry">
            <mxPoint x="554" y="571" as="sourcePoint" />
            <mxPoint x="714" y="571" as="targetPoint" />
          </mxGeometry>
        </mxCell>
        <mxCell id="pSPXtr5vTM0hde9f8MuT-53" value="" style="endArrow=none;html=1;rounded=0;exitX=0;exitY=0;exitDx=0;exitDy=0;entryX=0.75;entryY=1;entryDx=0;entryDy=0;" edge="1" parent="1" source="pSPXtr5vTM0hde9f8MuT-21" target="pSPXtr5vTM0hde9f8MuT-13">
          <mxGeometry relative="1" as="geometry">
            <mxPoint x="600" y="460" as="sourcePoint" />
            <mxPoint x="760" y="460" as="targetPoint" />
          </mxGeometry>
        </mxCell>
        <mxCell id="pSPXtr5vTM0hde9f8MuT-61" value="" style="group" vertex="1" connectable="0" parent="1">
          <mxGeometry x="670" y="210" width="170" height="116" as="geometry" />
        </mxCell>
        <mxCell id="pSPXtr5vTM0hde9f8MuT-31" value="Ledger" style="shape=rhombus;perimeter=rhombusPerimeter;whiteSpace=wrap;html=1;align=center;" vertex="1" parent="pSPXtr5vTM0hde9f8MuT-61">
          <mxGeometry x="40" y="76" width="90" height="40" as="geometry" />
        </mxCell>
        <mxCell id="pSPXtr5vTM0hde9f8MuT-54" value="&lt;u&gt;loan_id&lt;/u&gt;" style="ellipse;whiteSpace=wrap;html=1;align=center;fontStyle=0;fontSize=10;" vertex="1" parent="pSPXtr5vTM0hde9f8MuT-61">
          <mxGeometry x="50" y="10" width="70" height="30" as="geometry" />
        </mxCell>
        <mxCell id="pSPXtr5vTM0hde9f8MuT-55" value="end_date" style="ellipse;whiteSpace=wrap;html=1;align=center;fontStyle=0;fontSize=10;" vertex="1" parent="pSPXtr5vTM0hde9f8MuT-61">
          <mxGeometry y="40" width="70" height="30" as="geometry" />
        </mxCell>
        <mxCell id="pSPXtr5vTM0hde9f8MuT-56" value="start_date" style="ellipse;whiteSpace=wrap;html=1;align=center;fontStyle=0;fontSize=10;" vertex="1" parent="pSPXtr5vTM0hde9f8MuT-61">
          <mxGeometry x="100" y="40" width="70" height="30" as="geometry" />
        </mxCell>
        <mxCell id="pSPXtr5vTM0hde9f8MuT-58" value="" style="endArrow=none;html=1;rounded=0;exitX=0;exitY=0;exitDx=0;exitDy=0;entryX=0.5;entryY=1;entryDx=0;entryDy=0;" edge="1" parent="pSPXtr5vTM0hde9f8MuT-61" source="pSPXtr5vTM0hde9f8MuT-31" target="pSPXtr5vTM0hde9f8MuT-55">
          <mxGeometry relative="1" as="geometry">
            <mxPoint x="-20" y="121" as="sourcePoint" />
            <mxPoint x="140" y="121" as="targetPoint" />
          </mxGeometry>
        </mxCell>
        <mxCell id="pSPXtr5vTM0hde9f8MuT-59" value="" style="endArrow=none;html=1;rounded=0;exitX=0.5;exitY=0;exitDx=0;exitDy=0;entryX=0.5;entryY=1;entryDx=0;entryDy=0;" edge="1" parent="pSPXtr5vTM0hde9f8MuT-61" source="pSPXtr5vTM0hde9f8MuT-31" target="pSPXtr5vTM0hde9f8MuT-54">
          <mxGeometry relative="1" as="geometry">
            <mxPoint x="73" y="101" as="sourcePoint" />
            <mxPoint x="59" y="69" as="targetPoint" />
          </mxGeometry>
        </mxCell>
        <mxCell id="pSPXtr5vTM0hde9f8MuT-60" value="" style="endArrow=none;html=1;rounded=0;exitX=1;exitY=0;exitDx=0;exitDy=0;entryX=0.5;entryY=1;entryDx=0;entryDy=0;" edge="1" parent="pSPXtr5vTM0hde9f8MuT-61" source="pSPXtr5vTM0hde9f8MuT-31" target="pSPXtr5vTM0hde9f8MuT-56">
          <mxGeometry relative="1" as="geometry">
            <mxPoint x="95" y="91" as="sourcePoint" />
            <mxPoint x="95" y="40" as="targetPoint" />
          </mxGeometry>
        </mxCell>
        <mxCell id="pSPXtr5vTM0hde9f8MuT-68" value="" style="group" vertex="1" connectable="0" parent="1">
          <mxGeometry x="670" y="350" width="170" height="115" as="geometry" />
        </mxCell>
        <mxCell id="pSPXtr5vTM0hde9f8MuT-30" value="Review" style="shape=rhombus;perimeter=rhombusPerimeter;whiteSpace=wrap;html=1;align=center;" vertex="1" parent="pSPXtr5vTM0hde9f8MuT-68">
          <mxGeometry x="40" width="90" height="40" as="geometry" />
        </mxCell>
        <mxCell id="pSPXtr5vTM0hde9f8MuT-62" value="rating" style="ellipse;whiteSpace=wrap;html=1;align=center;fontStyle=0;fontSize=10;" vertex="1" parent="pSPXtr5vTM0hde9f8MuT-68">
          <mxGeometry y="42.5" width="70" height="30" as="geometry" />
        </mxCell>
        <mxCell id="pSPXtr5vTM0hde9f8MuT-63" value="comment" style="ellipse;whiteSpace=wrap;html=1;align=center;fontStyle=0;fontSize=10;" vertex="1" parent="pSPXtr5vTM0hde9f8MuT-68">
          <mxGeometry x="50" y="72.5" width="70" height="30" as="geometry" />
        </mxCell>
        <mxCell id="pSPXtr5vTM0hde9f8MuT-64" value="review_time" style="ellipse;whiteSpace=wrap;html=1;align=center;fontStyle=0;fontSize=10;" vertex="1" parent="pSPXtr5vTM0hde9f8MuT-68">
          <mxGeometry x="100" y="42.5" width="70" height="30" as="geometry" />
        </mxCell>
        <mxCell id="pSPXtr5vTM0hde9f8MuT-65" value="" style="endArrow=none;html=1;rounded=0;exitX=0;exitY=1;exitDx=0;exitDy=0;entryX=0.5;entryY=0;entryDx=0;entryDy=0;" edge="1" parent="pSPXtr5vTM0hde9f8MuT-68" source="pSPXtr5vTM0hde9f8MuT-30" target="pSPXtr5vTM0hde9f8MuT-62">
          <mxGeometry relative="1" as="geometry">
            <mxPoint x="10" y="20" as="sourcePoint" />
            <mxPoint x="170" y="20" as="targetPoint" />
          </mxGeometry>
        </mxCell>
        <mxCell id="pSPXtr5vTM0hde9f8MuT-66" value="" style="endArrow=none;html=1;rounded=0;exitX=0.5;exitY=0;exitDx=0;exitDy=0;entryX=1;entryY=1;entryDx=0;entryDy=0;" edge="1" parent="pSPXtr5vTM0hde9f8MuT-68" source="pSPXtr5vTM0hde9f8MuT-64" target="pSPXtr5vTM0hde9f8MuT-30">
          <mxGeometry relative="1" as="geometry">
            <mxPoint x="73" y="40" as="sourcePoint" />
            <mxPoint x="45" y="65" as="targetPoint" />
          </mxGeometry>
        </mxCell>
        <mxCell id="pSPXtr5vTM0hde9f8MuT-67" value="" style="endArrow=none;html=1;rounded=0;exitX=0.5;exitY=0;exitDx=0;exitDy=0;entryX=0.5;entryY=1;entryDx=0;entryDy=0;" edge="1" parent="pSPXtr5vTM0hde9f8MuT-68" source="pSPXtr5vTM0hde9f8MuT-63" target="pSPXtr5vTM0hde9f8MuT-30">
          <mxGeometry relative="1" as="geometry">
            <mxPoint x="145" y="65" as="sourcePoint" />
            <mxPoint x="118" y="40" as="targetPoint" />
          </mxGeometry>
        </mxCell>
        <mxCell id="pSPXtr5vTM0hde9f8MuT-69" value="" style="endArrow=open;html=1;rounded=0;exitX=1;exitY=0.5;exitDx=0;exitDy=0;entryX=0;entryY=0.75;entryDx=0;entryDy=0;startArrow=open;startFill=0;endFill=0;" edge="1" parent="1" source="pSPXtr5vTM0hde9f8MuT-32" target="pSPXtr5vTM0hde9f8MuT-13">
          <mxGeometry relative="1" as="geometry">
            <mxPoint x="420" y="490" as="sourcePoint" />
            <mxPoint x="580" y="490" as="targetPoint" />
          </mxGeometry>
        </mxCell>
        <mxCell id="pSPXtr5vTM0hde9f8MuT-70" value="" style="endArrow=open;html=1;rounded=0;exitX=1;exitY=0.25;exitDx=0;exitDy=0;entryX=0.094;entryY=1.025;entryDx=0;entryDy=0;entryPerimeter=0;startArrow=block;startFill=1;endFill=0;" edge="1" parent="1" source="pSPXtr5vTM0hde9f8MuT-33" target="pSPXtr5vTM0hde9f8MuT-13">
          <mxGeometry relative="1" as="geometry">
            <mxPoint x="408" y="413" as="sourcePoint" />
            <mxPoint x="505" y="370" as="targetPoint" />
          </mxGeometry>
        </mxCell>
        <mxCell id="pSPXtr5vTM0hde9f8MuT-71" value="" style="endArrow=open;html=1;rounded=0;exitX=0.75;exitY=0;exitDx=0;exitDy=0;entryX=0.25;entryY=1;entryDx=0;entryDy=0;startArrow=block;startFill=1;endFill=0;" edge="1" parent="1" source="pSPXtr5vTM0hde9f8MuT-50" target="pSPXtr5vTM0hde9f8MuT-13">
          <mxGeometry relative="1" as="geometry">
            <mxPoint x="408" y="468" as="sourcePoint" />
            <mxPoint x="505" y="370" as="targetPoint" />
          </mxGeometry>
        </mxCell>
        <mxCell id="pSPXtr5vTM0hde9f8MuT-72" value="" style="endArrow=none;html=1;rounded=0;exitX=0.75;exitY=0;exitDx=0;exitDy=0;entryX=0.367;entryY=1.004;entryDx=0;entryDy=0;entryPerimeter=0;startArrow=open;startFill=0;" edge="1" parent="1" source="pSPXtr5vTM0hde9f8MuT-1" target="pSPXtr5vTM0hde9f8MuT-13">
          <mxGeometry relative="1" as="geometry">
            <mxPoint x="408" y="528" as="sourcePoint" />
            <mxPoint x="505" y="370" as="targetPoint" />
          </mxGeometry>
        </mxCell>
        <mxCell id="pSPXtr5vTM0hde9f8MuT-73" value="" style="endArrow=none;html=1;rounded=0;exitX=0.5;exitY=0;exitDx=0;exitDy=0;entryX=0.563;entryY=1.025;entryDx=0;entryDy=0;entryPerimeter=0;startArrow=open;startFill=0;" edge="1" parent="1" source="pSPXtr5vTM0hde9f8MuT-15" target="pSPXtr5vTM0hde9f8MuT-13">
          <mxGeometry relative="1" as="geometry">
            <mxPoint x="468" y="563" as="sourcePoint" />
            <mxPoint x="517" y="370" as="targetPoint" />
          </mxGeometry>
        </mxCell>
        <mxCell id="pSPXtr5vTM0hde9f8MuT-79" value="" style="group" vertex="1" connectable="0" parent="1">
          <mxGeometry x="210" y="410" width="198" height="40" as="geometry" />
        </mxCell>
        <mxCell id="pSPXtr5vTM0hde9f8MuT-33" value="BookCover" style="shape=ext;margin=3;double=1;whiteSpace=wrap;html=1;align=center;" vertex="1" parent="pSPXtr5vTM0hde9f8MuT-79">
          <mxGeometry x="98" width="100" height="40" as="geometry" />
        </mxCell>
        <mxCell id="pSPXtr5vTM0hde9f8MuT-75" value="image_content" style="ellipse;whiteSpace=wrap;html=1;align=center;fontStyle=0;fontSize=10;" vertex="1" parent="pSPXtr5vTM0hde9f8MuT-79">
          <mxGeometry y="5" width="75" height="30" as="geometry" />
        </mxCell>
        <mxCell id="pSPXtr5vTM0hde9f8MuT-77" value="" style="endArrow=none;html=1;rounded=0;exitX=1;exitY=0.5;exitDx=0;exitDy=0;entryX=0;entryY=0.5;entryDx=0;entryDy=0;" edge="1" parent="pSPXtr5vTM0hde9f8MuT-79" source="pSPXtr5vTM0hde9f8MuT-75" target="pSPXtr5vTM0hde9f8MuT-33">
          <mxGeometry relative="1" as="geometry">
            <mxPoint x="85" y="90" as="sourcePoint" />
            <mxPoint x="108" y="90" as="targetPoint" />
          </mxGeometry>
        </mxCell>
        <mxCell id="pSPXtr5vTM0hde9f8MuT-80" value="" style="group" vertex="1" connectable="0" parent="1">
          <mxGeometry x="220" y="350" width="198" height="40" as="geometry" />
        </mxCell>
        <mxCell id="pSPXtr5vTM0hde9f8MuT-32" value="BookContent" style="shape=ext;margin=3;double=1;whiteSpace=wrap;html=1;align=center;" vertex="1" parent="pSPXtr5vTM0hde9f8MuT-80">
          <mxGeometry x="98" width="100" height="40" as="geometry" />
        </mxCell>
        <mxCell id="pSPXtr5vTM0hde9f8MuT-76" value="text_content" style="ellipse;whiteSpace=wrap;html=1;align=center;fontStyle=0;fontSize=10;" vertex="1" parent="pSPXtr5vTM0hde9f8MuT-80">
          <mxGeometry y="5" width="75" height="30" as="geometry" />
        </mxCell>
        <mxCell id="pSPXtr5vTM0hde9f8MuT-78" value="" style="endArrow=none;html=1;rounded=0;exitX=1;exitY=0.5;exitDx=0;exitDy=0;entryX=0;entryY=0.5;entryDx=0;entryDy=0;" edge="1" parent="pSPXtr5vTM0hde9f8MuT-80" source="pSPXtr5vTM0hde9f8MuT-76" target="pSPXtr5vTM0hde9f8MuT-32">
          <mxGeometry relative="1" as="geometry">
            <mxPoint x="95" y="155" as="sourcePoint" />
            <mxPoint x="118" y="155" as="targetPoint" />
          </mxGeometry>
        </mxCell>
        <mxCell id="pSPXtr5vTM0hde9f8MuT-81" value="" style="group" vertex="1" connectable="0" parent="1">
          <mxGeometry x="250" y="470" width="198" height="40" as="geometry" />
        </mxCell>
        <mxCell id="pSPXtr5vTM0hde9f8MuT-24" value="avg_rating" style="ellipse;whiteSpace=wrap;html=1;align=center;dashed=1;fontSize=10;" vertex="1" parent="pSPXtr5vTM0hde9f8MuT-81">
          <mxGeometry y="5" width="75" height="30" as="geometry" />
        </mxCell>
        <mxCell id="pSPXtr5vTM0hde9f8MuT-50" value="Rating" style="shape=ext;margin=3;double=1;whiteSpace=wrap;html=1;align=center;" vertex="1" parent="pSPXtr5vTM0hde9f8MuT-81">
          <mxGeometry x="98" width="100" height="40" as="geometry" />
        </mxCell>
        <mxCell id="pSPXtr5vTM0hde9f8MuT-74" value="" style="endArrow=none;html=1;rounded=0;exitX=1;exitY=0.5;exitDx=0;exitDy=0;entryX=0;entryY=0.5;entryDx=0;entryDy=0;" edge="1" parent="pSPXtr5vTM0hde9f8MuT-81" source="pSPXtr5vTM0hde9f8MuT-24" target="pSPXtr5vTM0hde9f8MuT-50">
          <mxGeometry relative="1" as="geometry">
            <mxPoint x="30" y="52" as="sourcePoint" />
            <mxPoint x="190" y="52" as="targetPoint" />
          </mxGeometry>
        </mxCell>
        <mxCell id="pSPXtr5vTM0hde9f8MuT-94" value="" style="group" vertex="1" connectable="0" parent="1">
          <mxGeometry x="525" y="540" width="155" height="90" as="geometry" />
        </mxCell>
        <mxCell id="pSPXtr5vTM0hde9f8MuT-15" value="Author" style="whiteSpace=wrap;html=1;align=center;" vertex="1" parent="pSPXtr5vTM0hde9f8MuT-94">
          <mxGeometry x="25" width="100" height="40" as="geometry" />
        </mxCell>
        <mxCell id="pSPXtr5vTM0hde9f8MuT-84" value="author_id" style="ellipse;whiteSpace=wrap;html=1;align=center;fontStyle=4;fontSize=10;" vertex="1" parent="pSPXtr5vTM0hde9f8MuT-94">
          <mxGeometry y="60" width="70" height="30" as="geometry" />
        </mxCell>
        <mxCell id="pSPXtr5vTM0hde9f8MuT-85" value="&lt;span&gt;author_name&lt;/span&gt;" style="ellipse;whiteSpace=wrap;html=1;align=center;fontStyle=0;fontSize=10;" vertex="1" parent="pSPXtr5vTM0hde9f8MuT-94">
          <mxGeometry x="85" y="60" width="70" height="30" as="geometry" />
        </mxCell>
        <mxCell id="pSPXtr5vTM0hde9f8MuT-90" value="" style="endArrow=none;html=1;rounded=0;exitX=0.75;exitY=1;exitDx=0;exitDy=0;" edge="1" parent="pSPXtr5vTM0hde9f8MuT-94" source="pSPXtr5vTM0hde9f8MuT-15" target="pSPXtr5vTM0hde9f8MuT-85">
          <mxGeometry relative="1" as="geometry">
            <mxPoint x="321" y="35" as="sourcePoint" />
            <mxPoint x="351" y="48" as="targetPoint" />
          </mxGeometry>
        </mxCell>
        <mxCell id="pSPXtr5vTM0hde9f8MuT-91" value="" style="endArrow=none;html=1;rounded=0;exitX=0.25;exitY=1;exitDx=0;exitDy=0;" edge="1" parent="pSPXtr5vTM0hde9f8MuT-94" source="pSPXtr5vTM0hde9f8MuT-15" target="pSPXtr5vTM0hde9f8MuT-84">
          <mxGeometry relative="1" as="geometry">
            <mxPoint x="110" y="50" as="sourcePoint" />
            <mxPoint x="122" y="70" as="targetPoint" />
          </mxGeometry>
        </mxCell>
        <mxCell id="pSPXtr5vTM0hde9f8MuT-95" value="" style="group" vertex="1" connectable="0" parent="1">
          <mxGeometry x="320" y="530" width="180" height="90" as="geometry" />
        </mxCell>
        <mxCell id="pSPXtr5vTM0hde9f8MuT-1" value="&lt;div&gt;Language&lt;/div&gt;" style="whiteSpace=wrap;html=1;align=center;" vertex="1" parent="pSPXtr5vTM0hde9f8MuT-95">
          <mxGeometry x="80" width="100" height="40" as="geometry" />
        </mxCell>
        <mxCell id="pSPXtr5vTM0hde9f8MuT-86" value="lang_id" style="ellipse;whiteSpace=wrap;html=1;align=center;fontStyle=4;fontSize=10;" vertex="1" parent="pSPXtr5vTM0hde9f8MuT-95">
          <mxGeometry y="30" width="70" height="30" as="geometry" />
        </mxCell>
        <mxCell id="pSPXtr5vTM0hde9f8MuT-87" value="&lt;span&gt;lang_name&lt;/span&gt;" style="ellipse;whiteSpace=wrap;html=1;align=center;fontStyle=0;fontSize=10;" vertex="1" parent="pSPXtr5vTM0hde9f8MuT-95">
          <mxGeometry x="70" y="60" width="70" height="30" as="geometry" />
        </mxCell>
        <mxCell id="pSPXtr5vTM0hde9f8MuT-92" value="" style="endArrow=none;html=1;rounded=0;exitX=0.5;exitY=1;exitDx=0;exitDy=0;entryX=0.5;entryY=0;entryDx=0;entryDy=0;" edge="1" parent="pSPXtr5vTM0hde9f8MuT-95" source="pSPXtr5vTM0hde9f8MuT-1" target="pSPXtr5vTM0hde9f8MuT-87">
          <mxGeometry relative="1" as="geometry">
            <mxPoint x="325" y="60" as="sourcePoint" />
            <mxPoint x="337" y="80" as="targetPoint" />
          </mxGeometry>
        </mxCell>
        <mxCell id="pSPXtr5vTM0hde9f8MuT-93" value="" style="endArrow=none;html=1;rounded=0;exitX=1;exitY=0;exitDx=0;exitDy=0;entryX=0;entryY=0.5;entryDx=0;entryDy=0;" edge="1" parent="pSPXtr5vTM0hde9f8MuT-95" source="pSPXtr5vTM0hde9f8MuT-86" target="pSPXtr5vTM0hde9f8MuT-1">
          <mxGeometry relative="1" as="geometry">
            <mxPoint x="140" y="50" as="sourcePoint" />
            <mxPoint x="131" y="70" as="targetPoint" />
          </mxGeometry>
        </mxCell>
        <mxCell id="pSPXtr5vTM0hde9f8MuT-96" value="" style="group" vertex="1" connectable="0" parent="1">
          <mxGeometry x="700" y="530" width="185" height="90" as="geometry" />
        </mxCell>
        <mxCell id="pSPXtr5vTM0hde9f8MuT-14" value="Theme" style="whiteSpace=wrap;html=1;align=center;" vertex="1" parent="pSPXtr5vTM0hde9f8MuT-96">
          <mxGeometry width="100" height="40" as="geometry" />
        </mxCell>
        <mxCell id="pSPXtr5vTM0hde9f8MuT-82" value="theme_id" style="ellipse;whiteSpace=wrap;html=1;align=center;fontStyle=4;fontSize=10;" vertex="1" parent="pSPXtr5vTM0hde9f8MuT-96">
          <mxGeometry x="45" y="60" width="70" height="30" as="geometry" />
        </mxCell>
        <mxCell id="pSPXtr5vTM0hde9f8MuT-83" value="&lt;span&gt;theme_name&lt;/span&gt;" style="ellipse;whiteSpace=wrap;html=1;align=center;fontStyle=0;fontSize=10;" vertex="1" parent="pSPXtr5vTM0hde9f8MuT-96">
          <mxGeometry x="115" y="30" width="70" height="30" as="geometry" />
        </mxCell>
        <mxCell id="pSPXtr5vTM0hde9f8MuT-88" value="" style="endArrow=none;html=1;rounded=0;entryX=0.5;entryY=0;entryDx=0;entryDy=0;" edge="1" parent="pSPXtr5vTM0hde9f8MuT-96" target="pSPXtr5vTM0hde9f8MuT-82">
          <mxGeometry relative="1" as="geometry">
            <mxPoint x="55" y="40" as="sourcePoint" />
            <mxPoint x="-15" as="targetPoint" />
          </mxGeometry>
        </mxCell>
        <mxCell id="pSPXtr5vTM0hde9f8MuT-89" value="" style="endArrow=none;html=1;rounded=0;entryX=0.068;entryY=0.267;entryDx=0;entryDy=0;exitX=0.996;exitY=0.613;exitDx=0;exitDy=0;exitPerimeter=0;entryPerimeter=0;" edge="1" parent="pSPXtr5vTM0hde9f8MuT-96" source="pSPXtr5vTM0hde9f8MuT-14" target="pSPXtr5vTM0hde9f8MuT-83">
          <mxGeometry relative="1" as="geometry">
            <mxPoint x="65" y="50" as="sourcePoint" />
            <mxPoint x="80" y="70" as="targetPoint" />
          </mxGeometry>
        </mxCell>
        <mxCell id="pSPXtr5vTM0hde9f8MuT-102" value="" style="group" vertex="1" connectable="0" parent="1">
          <mxGeometry x="840" y="260" width="210" height="163" as="geometry" />
        </mxCell>
        <mxCell id="pSPXtr5vTM0hde9f8MuT-9" value="User" style="whiteSpace=wrap;html=1;align=center;" vertex="1" parent="pSPXtr5vTM0hde9f8MuT-102">
          <mxGeometry y="60" width="100" height="40" as="geometry" />
        </mxCell>
        <mxCell id="pSPXtr5vTM0hde9f8MuT-25" value="user_id" style="ellipse;whiteSpace=wrap;html=1;align=center;fontStyle=4;fontSize=10;" vertex="1" parent="pSPXtr5vTM0hde9f8MuT-102">
          <mxGeometry x="60" width="70" height="30" as="geometry" />
        </mxCell>
        <mxCell id="pSPXtr5vTM0hde9f8MuT-26" value="user_name" style="ellipse;whiteSpace=wrap;html=1;align=center;fontStyle=0;fontSize=10;" vertex="1" parent="pSPXtr5vTM0hde9f8MuT-102">
          <mxGeometry x="120" y="30" width="70" height="30" as="geometry" />
        </mxCell>
        <mxCell id="pSPXtr5vTM0hde9f8MuT-27" value="&lt;div&gt;user_email&lt;/div&gt;" style="ellipse;whiteSpace=wrap;html=1;align=center;fontStyle=0;fontSize=10;" vertex="1" parent="pSPXtr5vTM0hde9f8MuT-102">
          <mxGeometry x="140" y="65" width="70" height="30" as="geometry" />
        </mxCell>
        <mxCell id="pSPXtr5vTM0hde9f8MuT-28" value="pass_hash" style="ellipse;whiteSpace=wrap;html=1;align=center;fontStyle=0;fontSize=10;" vertex="1" parent="pSPXtr5vTM0hde9f8MuT-102">
          <mxGeometry x="120" y="103" width="70" height="30" as="geometry" />
        </mxCell>
        <mxCell id="pSPXtr5vTM0hde9f8MuT-29" value="wallet_cents" style="ellipse;whiteSpace=wrap;html=1;align=center;fontStyle=0;fontSize=10;" vertex="1" parent="pSPXtr5vTM0hde9f8MuT-102">
          <mxGeometry x="60" y="133" width="70" height="30" as="geometry" />
        </mxCell>
        <mxCell id="pSPXtr5vTM0hde9f8MuT-97" value="" style="endArrow=none;html=1;rounded=0;exitX=0.75;exitY=0;exitDx=0;exitDy=0;entryX=0.5;entryY=1;entryDx=0;entryDy=0;" edge="1" parent="pSPXtr5vTM0hde9f8MuT-102" source="pSPXtr5vTM0hde9f8MuT-9" target="pSPXtr5vTM0hde9f8MuT-25">
          <mxGeometry relative="1" as="geometry">
            <mxPoint x="-20" y="70" as="sourcePoint" />
            <mxPoint x="140" y="70" as="targetPoint" />
          </mxGeometry>
        </mxCell>
        <mxCell id="pSPXtr5vTM0hde9f8MuT-98" value="" style="endArrow=none;html=1;rounded=0;exitX=0;exitY=1;exitDx=0;exitDy=0;entryX=1;entryY=0.25;entryDx=0;entryDy=0;" edge="1" parent="pSPXtr5vTM0hde9f8MuT-102" source="pSPXtr5vTM0hde9f8MuT-26" target="pSPXtr5vTM0hde9f8MuT-9">
          <mxGeometry relative="1" as="geometry">
            <mxPoint x="85" y="70" as="sourcePoint" />
            <mxPoint x="105" y="40" as="targetPoint" />
          </mxGeometry>
        </mxCell>
        <mxCell id="pSPXtr5vTM0hde9f8MuT-99" value="" style="endArrow=none;html=1;rounded=0;exitX=0;exitY=0.5;exitDx=0;exitDy=0;entryX=1;entryY=0.5;entryDx=0;entryDy=0;" edge="1" parent="pSPXtr5vTM0hde9f8MuT-102" source="pSPXtr5vTM0hde9f8MuT-27" target="pSPXtr5vTM0hde9f8MuT-9">
          <mxGeometry relative="1" as="geometry">
            <mxPoint x="140" y="66" as="sourcePoint" />
            <mxPoint x="110" y="80" as="targetPoint" />
          </mxGeometry>
        </mxCell>
        <mxCell id="pSPXtr5vTM0hde9f8MuT-100" value="" style="endArrow=none;html=1;rounded=0;exitX=0;exitY=0;exitDx=0;exitDy=0;entryX=1;entryY=0.75;entryDx=0;entryDy=0;" edge="1" parent="pSPXtr5vTM0hde9f8MuT-102" source="pSPXtr5vTM0hde9f8MuT-28" target="pSPXtr5vTM0hde9f8MuT-9">
          <mxGeometry relative="1" as="geometry">
            <mxPoint x="150" y="90" as="sourcePoint" />
            <mxPoint x="110" y="90" as="targetPoint" />
          </mxGeometry>
        </mxCell>
        <mxCell id="pSPXtr5vTM0hde9f8MuT-101" value="" style="endArrow=none;html=1;rounded=0;exitX=0.5;exitY=0;exitDx=0;exitDy=0;entryX=0.75;entryY=1;entryDx=0;entryDy=0;" edge="1" parent="pSPXtr5vTM0hde9f8MuT-102" source="pSPXtr5vTM0hde9f8MuT-29" target="pSPXtr5vTM0hde9f8MuT-9">
          <mxGeometry relative="1" as="geometry">
            <mxPoint x="140" y="117" as="sourcePoint" />
            <mxPoint x="110" y="100" as="targetPoint" />
          </mxGeometry>
        </mxCell>
      </root>
    </mxGraphModel>
  </diagram>
</mxfile>
